<svg width="91" height="104" viewBox="0 0 91 104" fill="none" xmlns="http://www.w3.org/2000/svg">
<path d="M81.25 13H71.5V2.4375C71.5 1.09139 70.4086 0 69.0625 0H60.9375C59.5914 0 58.5 1.09139 58.5 2.4375V13H32.5V2.4375C32.5 1.09139 31.4086 0 30.0625 0H21.9375C20.5914 0 19.5 1.09139 19.5 2.4375V13H9.75C4.36516 13 0 17.3652 0 22.75V94.25C0 99.6348 4.36516 104 9.75 104H81.25C86.6348 104 91 99.6348 91 94.25V22.75C91 17.3652 86.6348 13 81.25 13ZM80.0312 94.25H10.9688C10.6455 94.25 10.3355 94.1216 10.107 93.893C9.8784 93.6645 9.75 93.3545 9.75 93.0312V32.5H81.25V93.0312C81.25 93.3545 81.1216 93.6645 80.893 93.893C80.6645 94.1216 80.3545 94.25 80.0312 94.25V94.25ZM69.2963 53.493L40.3898 82.1679C39.4341 83.1159 37.8907 83.1098 36.9425 82.1541L21.6897 66.7778C20.7417 65.822 20.7478 64.2787 21.7035 63.3305L26.3183 58.7529C27.274 57.8049 28.8173 57.811 29.7653 58.7669L38.724 67.798L61.2855 45.4175C62.2412 44.4695 63.7845 44.4756 64.7327 45.4313L69.3103 50.0459C70.2583 51.0016 70.252 52.545 69.2963 53.493Z" fill="#1885FF" fill-opacity="0.5"/>
</svg>
