<svg width="23" height="23" viewBox="0 0 23 23" fill="none" xmlns="http://www.w3.org/2000/svg">
<g clip-path="url(#clip0)">
<path d="M20.5922 2.88848C17.9957 0.705281 13.9842 1.03321 11.5 3.56231C9.01582 1.03321 5.0043 0.700789 2.40782 2.88848C-0.970307 5.73204 -0.476167 10.368 1.93165 12.8252L9.81094 20.8527C10.2602 21.3109 10.8621 21.567 11.5 21.567C12.1424 21.567 12.7398 21.3154 13.1891 20.8572L21.0684 12.8297C23.4717 10.3725 23.9748 5.73653 20.5922 2.88848ZM19.532 11.3113L11.6527 19.3389C11.5449 19.4467 11.4551 19.4467 11.3473 19.3389L3.46797 11.3113C1.82833 9.64024 1.4959 6.47774 3.7959 4.54161C5.54336 3.07266 8.23868 3.29278 9.92774 5.01329L11.5 6.617L13.0723 5.01329C14.7703 3.2838 17.4656 3.07266 19.2041 4.53712C21.4996 6.47325 21.1582 9.65372 19.532 11.3113Z" fill="black"/>
</g>
<defs>
<clipPath id="clip0">
<rect width="23" height="23" fill="white"/>
</clipPath>
</defs>
</svg>
