<svg width="24" height="22" viewBox="0 0 24 22" fill="none" xmlns="http://www.w3.org/2000/svg">
<g clip-path="url(#clip0)">
<path d="M5.1 15.1252H18.885C19.05 15.1252 19.185 15.2798 19.185 15.4689L19.1887 17.5314C19.1887 17.7205 19.0537 17.8752 18.8887 17.8752H5.1C4.935 17.8752 4.8 17.7205 4.8 17.5314V15.4689C4.8 15.2798 4.935 15.1252 5.1 15.1252ZM5.1 19.2502H18.8962C19.0612 19.2502 19.1962 19.4048 19.1962 19.5939L19.2 21.6564C19.2 21.8455 19.065 22.0002 18.9 22.0002H5.1C4.935 22.0002 4.8 21.8455 4.8 21.6564V19.5939C4.8 19.4048 4.935 19.2502 5.1 19.2502ZM5.1 11.0002H18.8775C19.0425 11.0002 19.1775 11.1548 19.1775 11.3439L19.1812 13.4064C19.1812 13.5955 19.0462 13.7502 18.8812 13.7502H5.1C4.935 13.7502 4.8 13.5955 4.8 13.4064V11.3439C4.8 11.1548 4.935 11.0002 5.1 11.0002ZM1.10625 5.02749L11.31 0.159134C11.5293 0.0548824 11.7644 0.0012207 12.0019 0.0012207C12.2393 0.0012207 12.4744 0.0548824 12.6937 0.159134L22.8937 5.02749C23.5612 5.34976 24 6.09742 24 6.93101V21.6564C24 21.8455 23.865 22.0002 23.7 22.0002H20.7C20.535 22.0002 20.4 21.8455 20.4 21.6564V11.0002C20.4 10.2439 19.8525 9.62515 19.1775 9.62515H4.8225C4.1475 9.62515 3.6 10.2439 3.6 11.0002V21.6564C3.6 21.8455 3.465 22.0002 3.3 22.0002H0.299999C0.134998 22.0002 0 21.8455 0 21.6564V6.93101C0 6.09742 0.438749 5.34976 1.10625 5.02749Z" fill="black"/>
</g>
<defs>
<clipPath id="clip0">
<rect width="24" height="22" fill="white" transform="matrix(-1 0 0 1 24 0)"/>
</clipPath>
</defs>
</svg>
