<svg width="113" height="90" viewBox="0 0 113 90" fill="none" xmlns="http://www.w3.org/2000/svg">
<path d="M110.175 61.875H107.35V42.873C107.35 40.6406 106.45 38.4961 104.86 36.9141L87.2219 19.3535C85.6328 17.7715 83.4788 16.875 81.2364 16.875H73.45V8.4375C73.45 3.7793 69.6539 0 64.975 0H19.775C15.0961 0 11.3 3.7793 11.3 8.4375V16.875H1.4125C0.635625 16.875 0 17.5078 0 18.2812V21.0938C0 21.8672 0.635625 22.5 1.4125 22.5H49.4375C50.2144 22.5 50.85 23.1328 50.85 23.9062V26.7188C50.85 27.4922 50.2144 28.125 49.4375 28.125H7.0625C6.28562 28.125 5.65 28.7578 5.65 29.5312V32.3438C5.65 33.1172 6.28562 33.75 7.0625 33.75H43.7875C44.5644 33.75 45.2 34.3828 45.2 35.1562V37.9688C45.2 38.7422 44.5644 39.375 43.7875 39.375H1.4125C0.635625 39.375 0 40.0078 0 40.7812V43.5938C0 44.3672 0.635625 45 1.4125 45H38.1375C38.9144 45 39.55 45.6328 39.55 46.4062V49.2188C39.55 49.9922 38.9144 50.625 38.1375 50.625H11.3V73.125C11.3 82.4414 18.8922 90 28.25 90C37.6078 90 45.2 82.4414 45.2 73.125H67.8C67.8 82.4414 75.3922 90 84.75 90C94.1078 90 101.7 82.4414 101.7 73.125H110.175C111.729 73.125 113 71.8594 113 70.3125V64.6875C113 63.1406 111.729 61.875 110.175 61.875ZM28.25 81.5625C23.5711 81.5625 19.775 77.7832 19.775 73.125C19.775 68.4668 23.5711 64.6875 28.25 64.6875C32.9289 64.6875 36.725 68.4668 36.725 73.125C36.725 77.7832 32.9289 81.5625 28.25 81.5625ZM84.75 81.5625C80.0711 81.5625 76.275 77.7832 76.275 73.125C76.275 68.4668 80.0711 64.6875 84.75 64.6875C89.4289 64.6875 93.225 68.4668 93.225 73.125C93.225 77.7832 89.4289 81.5625 84.75 81.5625ZM98.875 45H73.45V25.3125H81.2364L98.875 42.873V45Z" fill="#1885FF" fill-opacity="0.5"/>
<g clip-path="url(#clip0_51_254)">
<path d="M16.6001 40.5283L14.3657 40.0126C14.123 39.9568 13.8738 40.0835 13.7749 40.3113L12.7437 42.7175C12.6534 42.9281 12.7136 43.1751 12.8919 43.3191L14.1939 44.3847C13.4204 46.0326 12.0691 47.4033 10.3868 48.1917L9.32122 46.8898C9.17513 46.7115 8.9302 46.6513 8.71966 46.7415L6.31341 47.7728C6.08352 47.8738 5.95677 48.123 6.01263 48.3658L6.52825 50.6001C6.58196 50.8322 6.78821 50.9997 7.03099 50.9997C12.5331 50.9997 16.9997 46.5417 16.9997 41.031C16.9997 40.7904 16.8343 40.582 16.6001 40.5283Z" fill="white"/>
</g>
<path d="M29.3223 46.4727C29.3223 47.6523 29.0781 48.5547 28.5898 49.1797C28.1016 49.8047 27.3867 50.1172 26.4453 50.1172C25.5156 50.1172 24.8047 49.8105 24.3125 49.1973C23.8203 48.584 23.5684 47.7051 23.5566 46.5605V44.9902C23.5566 43.7988 23.8027 42.8945 24.2949 42.2773C24.791 41.6602 25.5039 41.3516 26.4336 41.3516C27.3633 41.3516 28.0742 41.6582 28.5664 42.2715C29.0586 42.8809 29.3105 43.7578 29.3223 44.9023V46.4727ZM27.6289 44.75C27.6289 44.043 27.5312 43.5293 27.3359 43.209C27.1445 42.8848 26.8438 42.7227 26.4336 42.7227C26.0352 42.7227 25.7402 42.877 25.5488 43.1855C25.3613 43.4902 25.2617 43.9688 25.25 44.6211V46.6953C25.25 47.3906 25.3438 47.9082 25.5312 48.248C25.7227 48.584 26.0273 48.752 26.4453 48.752C26.8594 48.752 27.1582 48.5898 27.3418 48.2656C27.5254 47.9414 27.6211 47.4453 27.6289 46.7773V44.75ZM36.1813 43.7363C36.1813 44.1504 36.0777 44.5176 35.8707 44.8379C35.6637 45.1582 35.3785 45.4141 35.0152 45.6055C35.4293 45.8047 35.7574 46.0801 35.9996 46.4316C36.2418 46.7793 36.3629 47.1895 36.3629 47.6621C36.3629 48.4199 36.1051 49.0195 35.5895 49.4609C35.0738 49.8984 34.3727 50.1172 33.4859 50.1172C32.5992 50.1172 31.8961 49.8965 31.3766 49.4551C30.857 49.0137 30.5973 48.416 30.5973 47.6621C30.5973 47.1895 30.7184 46.7773 30.9605 46.4258C31.2027 46.0742 31.5289 45.8008 31.9391 45.6055C31.5758 45.4141 31.2906 45.1582 31.0836 44.8379C30.8805 44.5176 30.7789 44.1504 30.7789 43.7363C30.7789 43.0098 31.0211 42.4316 31.5055 42.002C31.9898 41.5684 32.648 41.3516 33.4801 41.3516C34.3082 41.3516 34.9645 41.5664 35.4488 41.9961C35.9371 42.4219 36.1813 43.002 36.1813 43.7363ZM34.6637 47.5391C34.6637 47.168 34.5563 46.8711 34.3414 46.6484C34.1266 46.4258 33.8375 46.3145 33.4742 46.3145C33.1148 46.3145 32.8277 46.4258 32.6129 46.6484C32.398 46.8672 32.2906 47.1641 32.2906 47.5391C32.2906 47.9023 32.3961 48.1953 32.607 48.418C32.818 48.6406 33.1109 48.752 33.4859 48.752C33.8531 48.752 34.1402 48.6445 34.3473 48.4297C34.5582 48.2148 34.6637 47.918 34.6637 47.5391ZM34.4879 43.8184C34.4879 43.4863 34.4 43.2207 34.2242 43.0215C34.0484 42.8184 33.8004 42.7168 33.4801 42.7168C33.1637 42.7168 32.9176 42.8145 32.7418 43.0098C32.566 43.2051 32.4781 43.4746 32.4781 43.8184C32.4781 44.1582 32.566 44.4316 32.7418 44.6387C32.9176 44.8457 33.1656 44.9492 33.4859 44.9492C33.8063 44.9492 34.0523 44.8457 34.2242 44.6387C34.4 44.4316 34.4879 44.1582 34.4879 43.8184ZM41.0246 47.0293H37.7258V45.6641H41.0246V47.0293ZM46.577 50H44.8836V43.4727L42.8621 44.0996V42.7227L46.3953 41.457H46.577V50ZM55.352 50H49.5043V48.8398L52.2641 45.8984C52.643 45.4844 52.9223 45.123 53.102 44.8145C53.2855 44.5059 53.3773 44.2129 53.3773 43.9355C53.3773 43.5566 53.2816 43.2598 53.0902 43.0449C52.8988 42.8262 52.6254 42.7168 52.2699 42.7168C51.8871 42.7168 51.5844 42.8496 51.3617 43.1152C51.143 43.377 51.0336 43.7227 51.0336 44.1523H49.3344C49.3344 43.6328 49.4574 43.1582 49.7035 42.7285C49.9535 42.2988 50.3051 41.9629 50.7582 41.7207C51.2113 41.4746 51.725 41.3516 52.2992 41.3516C53.1781 41.3516 53.8598 41.5625 54.3441 41.9844C54.8324 42.4062 55.0766 43.002 55.0766 43.7715C55.0766 44.1934 54.9672 44.623 54.7484 45.0605C54.5297 45.498 54.1547 46.0078 53.6234 46.5898L51.684 48.6348H55.352V50ZM58.2676 44.9844H59.1699C59.5996 44.9844 59.918 44.877 60.125 44.6621C60.332 44.4473 60.4355 44.1621 60.4355 43.8066C60.4355 43.4629 60.332 43.1953 60.125 43.0039C59.9219 42.8125 59.6406 42.7168 59.2812 42.7168C58.957 42.7168 58.6855 42.8066 58.4668 42.9863C58.248 43.1621 58.1387 43.3926 58.1387 43.6777H56.4453C56.4453 43.2324 56.5645 42.834 56.8027 42.4824C57.0449 42.127 57.3809 41.8496 57.8105 41.6504C58.2441 41.4512 58.7207 41.3516 59.2402 41.3516C60.1426 41.3516 60.8496 41.5684 61.3613 42.002C61.873 42.4316 62.1289 43.0254 62.1289 43.7832C62.1289 44.1738 62.0098 44.5332 61.7715 44.8613C61.5332 45.1895 61.2207 45.4414 60.834 45.6172C61.3145 45.7891 61.6719 46.0469 61.9062 46.3906C62.1445 46.7344 62.2637 47.1406 62.2637 47.6094C62.2637 48.3672 61.9863 48.9746 61.4316 49.4316C60.8809 49.8887 60.1504 50.1172 59.2402 50.1172C58.3887 50.1172 57.6914 49.8926 57.1484 49.4434C56.6094 48.9941 56.3398 48.4004 56.3398 47.6621H58.0332C58.0332 47.9824 58.1523 48.2441 58.3906 48.4473C58.6328 48.6504 58.9297 48.752 59.2812 48.752C59.6836 48.752 59.998 48.6465 60.2246 48.4355C60.4551 48.2207 60.5703 47.9375 60.5703 47.5859C60.5703 46.7344 60.1016 46.3086 59.1641 46.3086H58.2676V44.9844ZM71.7336 46.7891H72.7004V48.1543H71.7336V50H70.0402V48.1543H66.5422L66.466 47.0879L70.0227 41.4688H71.7336V46.7891ZM68.1535 46.7891H70.0402V43.7773L69.9289 43.9707L68.1535 46.7891ZM74.0164 45.8047L74.5086 41.4688H79.2898V42.8809H75.8973L75.6863 44.7148C76.0887 44.5 76.5164 44.3926 76.9695 44.3926C77.782 44.3926 78.4188 44.6445 78.8797 45.1484C79.3406 45.6523 79.5711 46.3574 79.5711 47.2637C79.5711 47.8145 79.4539 48.3086 79.2195 48.7461C78.9891 49.1797 78.657 49.5176 78.2234 49.7598C77.7898 49.998 77.2781 50.1172 76.6883 50.1172C76.1727 50.1172 75.6941 50.0137 75.2527 49.8066C74.8113 49.5957 74.4617 49.3008 74.2039 48.9219C73.95 48.543 73.8152 48.1113 73.7996 47.627H75.4754C75.5105 47.9824 75.6336 48.2598 75.8445 48.459C76.0594 48.6543 76.3387 48.752 76.6824 48.752C77.0652 48.752 77.3602 48.6152 77.5672 48.3418C77.7742 48.0645 77.8777 47.6738 77.8777 47.1699C77.8777 46.6855 77.7586 46.3145 77.5203 46.0566C77.282 45.7988 76.9441 45.6699 76.5066 45.6699C76.1043 45.6699 75.7781 45.7754 75.5281 45.9863L75.3641 46.1387L74.0164 45.8047ZM85.3988 41.3809V42.7754H85.2348C84.4691 42.7871 83.852 42.9863 83.3832 43.373C82.9184 43.7598 82.6391 44.2969 82.5453 44.9844C82.9984 44.5234 83.5707 44.293 84.2621 44.293C85.0043 44.293 85.5941 44.5586 86.0316 45.0898C86.4691 45.6211 86.6879 46.3203 86.6879 47.1875C86.6879 47.7422 86.5668 48.2441 86.3246 48.6934C86.0863 49.1426 85.7465 49.4922 85.3051 49.7422C84.8676 49.9922 84.3715 50.1172 83.8168 50.1172C82.9184 50.1172 82.1918 49.8047 81.6371 49.1797C81.0863 48.5547 80.8109 47.7207 80.8109 46.6777V46.0684C80.8109 45.1426 80.9848 44.3262 81.3324 43.6191C81.684 42.9082 82.1859 42.3594 82.8383 41.9727C83.4945 41.582 84.2543 41.3848 85.1176 41.3809H85.3988ZM83.7465 45.6523C83.473 45.6523 83.225 45.7246 83.0023 45.8691C82.7797 46.0098 82.6156 46.1973 82.5102 46.4316V46.9473C82.5102 47.5137 82.6215 47.957 82.8441 48.2773C83.0668 48.5938 83.3793 48.752 83.7816 48.752C84.1449 48.752 84.4379 48.6094 84.6605 48.3242C84.8871 48.0352 85.0004 47.6621 85.0004 47.2051C85.0004 46.7402 84.8871 46.3652 84.6605 46.0801C84.434 45.7949 84.1293 45.6523 83.7465 45.6523ZM95.5777 41.3809V42.7754H95.4137C94.648 42.7871 94.0309 42.9863 93.5621 43.373C93.0973 43.7598 92.818 44.2969 92.7242 44.9844C93.1773 44.5234 93.7496 44.293 94.441 44.293C95.1832 44.293 95.773 44.5586 96.2105 45.0898C96.648 45.6211 96.8668 46.3203 96.8668 47.1875C96.8668 47.7422 96.7457 48.2441 96.5035 48.6934C96.2652 49.1426 95.9254 49.4922 95.484 49.7422C95.0465 49.9922 94.5504 50.1172 93.9957 50.1172C93.0973 50.1172 92.3707 49.8047 91.816 49.1797C91.2652 48.5547 90.9898 47.7207 90.9898 46.6777V46.0684C90.9898 45.1426 91.1637 44.3262 91.5113 43.6191C91.8629 42.9082 92.3648 42.3594 93.0172 41.9727C93.6734 41.582 94.4332 41.3848 95.2965 41.3809H95.5777ZM93.9254 45.6523C93.652 45.6523 93.4039 45.7246 93.1813 45.8691C92.9586 46.0098 92.7945 46.1973 92.6891 46.4316V46.9473C92.6891 47.5137 92.8004 47.957 93.023 48.2773C93.2457 48.5938 93.5582 48.752 93.9605 48.752C94.3238 48.752 94.6168 48.6094 94.8395 48.3242C95.066 48.0352 95.1793 47.6621 95.1793 47.2051C95.1793 46.7402 95.066 46.3652 94.8395 46.0801C94.6129 45.7949 94.3082 45.6523 93.9254 45.6523ZM103.825 42.418L100.527 50H98.7395L102.044 42.8398H97.802V41.4688H103.825V42.418Z" fill="white"/>
<defs>
<clipPath id="clip0_51_254">
<rect width="11" height="11" fill="white" transform="translate(6 40)"/>
</clipPath>
</defs>
</svg>
